# xmcd CD database file
#
# Track frame offsets:
#	150
#	37715
#	53449
#
# Disc length: 1094 seconds
#
# Revision: 0
# Processed by: cddbd v1.5.2PL0 Copyright (c) Steve Scherf et al.
# Submitted via: CDex 1.51
#
DISCID=13044403
DTITLE=Steve Klink - Flashing in Time
DYEAR=2001
DGENRE=New Age
TTITLE0=Flashing in Time
TTITLE1=Light up
TTITLE2=Cobblestone Sea
EXTD=YEAR: 2001
EXTT0=
EXTT1=
EXTT2=
PLAYORDER=
